<svg xmlns="http://www.w3.org/2000/svg" viewBox="0 0 586.9 125"><circle fill="#222" cx="62.5" cy="62.5" r="62.5"/><path fill-rule="evenodd" clip-rule="evenodd" fill="#FFF" d="M95.8 61.3L91.6 32 64.1 43.1 75 49.4 64.7 67.2 46.8 56.9 29.2 87.4l9.9 5.6L51 72.4l17.8 10.3 16-27.7"/><g fill="#222"><path d="M158.9 99.9l10-1V26.6l-10-.8V8.5h37.6l38.4 58.9V27.5l-11-1.7V8.5h36v17.3l-8 1.7v89h-15.2l-50.8-77v58.2l16 2.2v16.6h-43V99.9zM337.4 29.2c-1.7-4.6-3.6-4.7-8.8-4.7h-24.8v31h7.8c3.7 0 5.6-1.7 6.3-4.5l2.7-10.5h9.2v41h-9.4l-2.9-10.1c-1-3.4-2.7-3.9-6.4-3.9h-7.3v33H330c8 0 9-1 11-6.1l6.8-17.9h11.1v40h-91V99.9l10-1.4V26.6l-10-.8V8.5h86v36h-10.3l-6.2-15.3zM434.4 64.5l-16.6 53h-21L370 26.8l-7.2-1V8.5h43v17.3l-8.5.7 16.2 56.4 12.6-43-4.1-13.5-6.3-.5V8.5h38v17.3l-6.7.7 17.7 56.4 13.5-54-9.5-3V8.5h34v17.3l-7.4 3-24 88.7H451l-16.6-53zM523.8 107.2l-2.4 9.3h-12.5v-36H523c4.1 18 13.9 22.1 23.4 22.1 10.3 0 16.2-4.2 16.2-13 0-8-8.8-11.5-24.2-16.7-16.9-5.6-29.6-14.2-29.6-33.2 0-20.8 16.4-31.8 33.3-31.8 9.3 0 18.8 3 23.7 8.8l2.2-8.1h12.9v31h-14.1c-2.5-11-11-16.8-21.7-16.8-7.8 0-13.4 3.6-13.4 10.3 0 9.1 9.3 11.8 22.7 16.2 17.6 6.1 32.5 13.2 32.5 33.5 0 22.9-18.8 35.1-36.4 35.1-10.3 0-20.1-3.3-26.7-10.7z"/></g></svg>