<svg xmlns="http://www.w3.org/2000/svg" viewBox="0 0 1298.7 150.1"><g fill="#FFF"><path d="M0 147.3V0h65.7c28 0 42.4 17.9 42.4 37.5 0 18.3-11.5 30.9-25.4 33.8 15.9 2.4 28.3 17.7 28.3 36 0 22.3-14.6 40-42.8 40H0zM76.1 43.1c0-9.1-6.6-15.5-17.2-15.5H31.4v30.9h27.5c10.6 0 17.2-5.9 17.2-15.4zm2.9 59.8c0-9.3-6.6-16.8-18.8-16.8H31.4v33.6h28.9c11.6 0 18.7-6.2 18.7-16.8zM226.6 147.3v-21l48.1-61.2h-48.1V40.6H313v20.1l-49 62.1h49.9v24.5h-87.3zM321.1 147.3v-21l48.1-61.2h-48.1V40.6h86.3v20.1l-49 62.1h49.9v24.5h-87.2zM424.8 147.3V0H527v27.6h-70.9v30.9h53.3v27.6h-53.3v61.2h-31.3zM516 93.9C516 63 539 38 571.2 38c32 0 53.4 23.9 53.4 58.5v6.6h-79.3c2 13 12.6 23.9 30.7 23.9 9.1 0 21.4-3.8 28.3-10.4l12.6 18.6c-10.6 9.7-27.4 14.8-43.9 14.8-32.5 0-57-21.9-57-56.1zM571.2 61c-17.4 0-25 12.1-26.1 22.7h52.6c-.9-10.2-7.9-22.7-26.5-22.7zM630.2 93.9c0-30.9 23-55.9 55.2-55.9 32 0 53.4 23.9 53.4 58.5v6.6h-79.3c2 13 12.6 23.9 30.7 23.9 9.1 0 21.4-3.8 28.3-10.4l12.6 18.6c-10.6 9.7-27.4 14.8-43.9 14.8-32.5 0-57-21.9-57-56.1zM685.4 61c-17.4 0-25 12.1-26.1 22.7h52.6C711 73.5 704 61 685.4 61zM745.8 147.5V40.4h43c33.7 0 58 20.2 58 53.5 0 33.2-24.2 53.6-57.8 53.6h-43.2zm73.7-53.6c0-16.6-10-30.4-29.6-30.4h-17.5v60.9h17.4c18.8 0 29.7-14.6 29.7-30.5zM116.6 104.6v-64h28.2v63.1c0 12.7 7.7 21.9 22.7 21.9 14.8 0 22.6-9.2 22.6-21.9V40.6h28.1v63.9c0 26.8-16.1 45.6-50.6 45.6s-51-19-51-45.5z"/><g><path d="M866.7 131.8l9.7-1v-73l-9.7-.9V40.5h37.5l39 58.5V58.6l-10.8-1.7V40.5h36.4v16.4l-8.2 1.7v88.9h-15.7l-51.1-76.8v58.8l16.1 2.2v15.7h-43.1v-15.6zM1046.6 60.7c-1.7-4.6-3.6-5-8.9-5h-25.5v31h8.4c3.8 0 5.6-1.2 6.3-4.1l2.7-10.1h9.6v40.7h-9.7l-2.9-10.4c-1-3.4-2.7-4.1-6.5-4.1h-7.9v33h26.8c8 0 9.1-.7 11.1-5.8l6.8-17.8h11.5v39.5h-92.3v-15.7l10.1-1.4V57.8l-10.1-.9V40.5h87.2v35.9h-10.6l-6.1-15.7zM1144.6 95l-16.8 53.5h-21.2l-27-91.1-7.2-.5V40.5h42.6v16.4l-8.2.7 16.6 56.9 12.8-43.4-4.4-13.7-6.7-.5V40.5h39.7v16.4l-7 .7 17.8 56.9 13.7-54.6-9.6-3.1V40.5h34.2v16.4l-7.5 2.6-24.3 89.1h-20.5l-17-53.6zM1234.9 138.6l-2.4 8.9h-12.7v-35.2h14.2c4.1 17.4 14 22.2 23.6 22.2 10.4 0 16.4-4.3 16.4-13.2 0-8-8.9-11.6-24.5-16.9-17.1-5.6-29.9-14.4-29.9-33.5 0-21 16.6-32.1 33.7-32.1 9.4 0 19 3.6 23.9 9.4l2.2-7.7h12.5v30.3h-13.7c-2.6-10.9-11.1-16.9-21.9-16.9-7.9 0-13.5 3.6-13.5 10.4 0 9.2 9.4 12 22.9 16.4 17.8 6.2 32.8 13.3 32.8 33.9 0 23.1-19 35.2-36.8 35.2-10.2 0-20.2-3.6-26.8-11.2z"/></g></g></svg>