<svg xmlns="http://www.w3.org/2000/svg" viewBox="0 0 598 130"><circle fill="#222" vector-effect="non-scaling-stroke" stroke="#FFF" stroke-width="1" cx="63.5" cy="63.5" r="62.5"/><path fill-rule="evenodd" clip-rule="evenodd" fill="#FFF" d="M96.8 62.3L92.6 33 65.1 44.1 76 50.4 65.7 68.2 47.8 57.9 30.2 88.4l9.9 5.6L52 73.4l17.8 10.3 16-27.7"/><g fill="#FFF"><path d="M166.5 101l9-1V27.6l-9-.8V10h36.6l38.4 58.4v-40l-11-1.7V10h37v16.7l-8 1.7V117h-16l-50-76.5v58.3l15 2.2v16h-42v-16zM344.4 30.1c-1.7-4.6-3.6-5.2-8.8-5.2h-25v31h8.1c3.7 0 5.6-1.2 6.3-4l2.7-10h8.9v41h-9.1l-2.9-10.6c-1-3.4-2.7-4.4-6.4-4.4h-7.6v33H337c8 0 9-.5 11-5.6l6.8-17.4h10.8v39h-91v-16l10-1.4v-72l-10-.8V10h86v36h-10l-6.2-15.9zM441.5 64.9L424.9 118h-21l-27-90.6-7.3-.7V10h43v16.7l-8.3.7 16.4 56.5 12.7-43.1-4.4-13.6-6.5-.5V10h39v16.7l-7 .7 17.6 56.5 13.7-54.1-9.4-3.1V10h34v16.7l-7.6 2.7-24.1 88.6h-20.3l-16.9-53.1zM531 108l-2.4 9h-12.1V82h13.7c4.1 17 13.9 21.9 23.4 21.9 10.3 0 16.3-4.3 16.3-13.1 0-8-8.8-11.6-24.2-16.8-17-5.6-29.7-14.3-29.7-33.2 0-20.9 16.4-31.9 33.4-31.9 9.3 0 18.8 3.3 23.7 9.1l2.2-7.9h12.3v30h-13.4c-2.5-11-11-16.6-21.7-16.6-7.8 0-13.4 3.7-13.4 10.5 0 9.2 9.3 11.9 22.7 16.3 17.6 6.1 32.5 13.3 32.5 33.6 0 22.9-18.8 35-36.4 35-10.4 0-20.3-3.5-26.9-10.9z"/></g></svg>