<svg xmlns="http://www.w3.org/2000/svg" viewBox="0 0 874.3 150.1">
<g fill="#FFFFFF">
	<path d="M0,147.3V0h65.7c28,0,42.4,17.9,42.4,37.5c0,18.3-11.5,30.9-25.4,33.8c15.9,2.4,28.3,17.7,28.3,36
		c0,22.3-14.6,40-42.8,40H0z M76.1,43.1c0-9.1-6.6-15.5-17.2-15.5H31.4v30.9h27.5C69.5,58.5,76.1,52.6,76.1,43.1z M79,102.9
		c0-9.3-6.6-16.8-18.8-16.8H31.4v33.6h28.9C71.9,119.7,79,113.5,79,102.9z"/>
	<path d="M122.6,104.6v-64h28.2v63.1c0,12.7,7.7,21.9,22.7,21.9c14.8,0,22.6-9.2,22.6-21.9V40.6h28.1v63.9
		c0,26.8-16.1,45.6-50.6,45.6C139.1,150.1,122.6,131.1,122.6,104.6z"/>
	<path d="M236.5,147.3v-21l48.1-61.2h-48.1V40.6h86.3v20.1l-49,62.1h49.9v24.5H236.5z"/>
	<path d="M335.9,147.3v-21L384,65.1h-48.1V40.6h86.3v20.1l-49,62.1h49.9v24.5H335.9z"/>
	<path d="M436.6,147.3V0h102.2v27.6H468v30.9h53.3v27.6H468v61.2H436.6z"/>
	<path d="M532.2,93.9c0-30.9,23-55.9,55.2-55.9c32,0,53.4,23.9,53.4,58.5v6.6h-79.3c2,13,12.6,23.9,30.7,23.9
		c9.1,0,21.4-3.8,28.3-10.4l12.6,18.6c-10.6,9.7-27.4,14.8-43.9,14.8C556.7,150,532.2,128.1,532.2,93.9z M587.4,61
		c-17.4,0-25,12.1-26.1,22.7h52.6C613,73.5,605.9,61,587.4,61z"/>
	<path d="M651.4,93.9c0-30.9,23-55.9,55.2-55.9c32,0,53.4,23.9,53.4,58.5v6.6h-79.3c2,13,12.6,23.9,30.7,23.9
		c9.1,0,21.4-3.8,28.3-10.4l12.6,18.6c-10.6,9.7-27.4,14.8-43.9,14.8C675.9,150,651.4,128.1,651.4,93.9z M706.6,61
		c-17.4,0-25,12.1-26.1,22.7h52.6C732.2,73.5,725.1,61,706.6,61z"/>
	<path d="M773.3,147.5V40.4h43c33.7,0,58,20.2,58,53.5c0,33.2-24.2,53.6-57.8,53.6H773.3z M847,93.9
		c0-16.6-10-30.4-29.6-30.4H800v60.9h17.4C836.1,124.4,847,109.8,847,93.9z"/>
</g>
</svg>
