<svg xmlns="http://www.w3.org/2000/svg" viewBox="0 0 1282.7 218.7"><g fill="#E32"><path d="M0 159.7V12.4h65.7c28 0 42.4 17.9 42.4 37.5 0 18.3-11.5 30.9-25.4 33.8 15.9 2.4 28.3 17.7 28.3 36 0 22.3-14.6 40-42.8 40H0zM76.1 55.4c0-9.1-6.6-15.5-17.2-15.5H31.4v30.9h27.5c10.6.1 17.2-5.9 17.2-15.4zm2.9 59.9c0-9.3-6.6-16.8-18.8-16.8H31.4v33.6h28.9c11.6 0 18.7-6.2 18.7-16.8zM119.6 117V53h28.2v63c0 12.7 7.7 21.9 22.7 21.9 14.8 0 22.6-9.2 22.6-21.9V53h28.1v63.9c0 26.8-16.1 45.6-50.6 45.6s-51-19-51-45.5zM230.5 159.7v-21l48.1-61.2h-48.1V53h86.3v20.1l-49 62.1h49.9v24.5h-87.2zM326.9 159.7v-21L375 77.5h-48.1V53h86.3v20.1l-49 62.1h49.9v24.5h-87.2zM424.6 159.7V12.4h102.2V40H456v30.9h53.3v27.6H456v61.2h-31.4zM517.2 106.2c0-30.9 23-55.9 55.2-55.9 32 0 53.4 23.9 53.4 58.5v6.6h-79.3c2 13 12.6 23.9 30.7 23.9 9.1 0 21.4-3.8 28.3-10.4l12.6 18.6c-10.6 9.7-27.4 14.8-43.9 14.8-32.5 0-57-21.9-57-56.1zm55.2-32.9c-17.4 0-25 12.1-26.1 22.7h52.6c-.9-10.1-8-22.7-26.5-22.7zM633.4 106.2c0-30.9 23-55.9 55.2-55.9 32 0 53.4 23.9 53.4 58.5v6.6h-79.3c2 13 12.6 23.9 30.7 23.9 9.1 0 21.4-3.8 28.3-10.4l12.6 18.6c-10.6 9.7-27.4 14.8-43.9 14.8-32.5 0-57-21.9-57-56.1zm55.2-32.9c-17.4 0-25 12.1-26.1 22.7h52.6c-.9-10.1-8-22.7-26.5-22.7zM752.3 159.9V52.7h43c33.7 0 58 20.2 58 53.5 0 33.2-24.2 53.6-57.8 53.6h-43.2zm73.7-53.7c0-16.6-10-30.4-29.6-30.4H779v60.9h17.4c18.7 0 29.6-14.6 29.6-30.5z"/></g><g fill="#2B8EE5" fill-rule="evenodd" clip-rule="evenodd"><path d="M1181 122.2c6 19.6 17.6 34.7 46.5 35.3 31.2.6 44-16.2 53.1-30.5 1.5-2.3 3.6-8.1.6-9.5-4.9-2.5-12-.1-17 6.2-6.5 8.1-17.3 17.9-35.7 18.1-23 .3-23.6-18.5-23.6-18.5 7.3.9 20.5 2 35.9-5.1 15.4-7.1 24.4-20.4 22.6-36.3-1.7-14.9-14.9-24.8-36.4-22.6-31.5 3.2-41.4 25.9-45.4 44.9-1.1 5.2-34.8-.1-34-.9 9.4-9.6 44.8-50.4 43.1-78.3-.4-6-3.2-24.9-22.2-24.9-38.4 0-52.6 100.6-52.6 100.6-1.5 2.6-20 30.8-34 30.8-15.4 0-10.5-30.9-5.5-48.2 3.1-10.7 8.5-23.3 7.7-24-.5-.4-5.3-.7-10.1-.6-4.1.1-8.7.6-9.5 1.1-.3.2-8.5 25.8-11.5 31.9-3.3 6.8-15.1 39.4-50 44.9-24.4 3.8-37-9.5-41.9-14.4 4.5-9.2 10.1-21.9 13.2-30.5 24.6.3 42-5.6 57.5-18.8 14-11.9 17.9-26.7 18.6-40.2 1.1-21.9-14-31.9-28-32.5-16.1-.7-28.7 6.3-38.1 17.7-10.8 13.1-16 26.2-25.7 52.9-6.8-.8-13.7-3.3-17.9-10.3-7.3-12.2 5.1-28.5 5.1-28.5l-15.3-9.3s-19 23.6-9.3 42.9c5.7 11.3 15.4 18.2 30.4 22.4-2.3 6.6-6 15.1-9.5 21.9-4-2.1-16.5-9.4-26.2-9.4-20.4 0-29.8 16.8-29.8 29.5 0 11.8 8.3 27.4 31.3 27.4 12.5 0 23.5-9 30.8-16.2 13.9 9.4 27.3 16.5 50 16.5 31.4 0 50.2-20.3 53.4-26.1.4 6.2 4.9 26.1 24.4 26.1 17.4 0 24-9.5 24-9.5s-4.1 16-3.7 29c.6 17.8 10.6 42.5 36.6 41.6 9.5-.3 24.5-5 31-22.5 3.4-9.1 4.5-23 1.6-37.6-5.3-26.4-18.7-35.9-16.4-36.8 5.5-2.1 24.1-.4 31.9.3m60.6-29.6c-6.6 13.9-25.8 15.8-37.2 13.6 1.5-8.4 6.1-29 24.9-30.2 12.9-.9 14.8 11.5 12.3 16.6m-109.2 3.1s6.4-33.7 16.1-54.2c5.2-10.9 12.1-22.6 18.8-22.6 5.4 0 7.7 6 6.4 13.3-3 17.1-33.9 60.8-41.3 63.5m-9.8 102.5c-4.8-4.2-8.8-12.2-8.3-24.5.7-16.3 7.1-34.5 13.9-47.8 8.9 6.8 15.5 16.2 18.5 24.4 4.5 12.5 6.5 23.6 2.8 37.5-3.6 13.6-17.9 18.4-26.9 10.4m-202.7-59.8c-9 .8-14.5-5-14.5-11.2 0-6.2 3.7-11.9 13.1-10.1 8.3 1.6 12.8 7.6 15.1 11.1-2.6 5-7.4 9.6-13.7 10.2m100.6-116.9c5.8-.2 9.9 5.6 9.9 12.7s-1.5 15-12.7 24.9c-7 6.1-22.7 11.2-35.8 12.4 7.1-17.1 12.9-31.4 20.1-40 5.9-6.9 12.8-9.8 18.5-10M1091.8 39.8c0 8.2-6.6 14.8-14.8 14.8-8.2 0-14.8-6.6-14.8-14.8 0-8.2 6.6-14.8 14.8-14.8 8.2 0 14.8 6.6 14.8 14.8"/></g></svg>