<svg xmlns="http://www.w3.org/2000/svg" viewBox="0 0 423.1 150.1">
	<g fill="#FFFFFF">
		<path d="M0,147.3V0h65.7c28,0,42.4,17.9,42.4,37.5c0,18.3-11.5,30.9-25.4,33.8c15.9,2.4,28.3,17.7,28.3,36
			c0,22.3-14.6,40-42.8,40H0z M76.1,43.1c0-9.1-6.6-15.5-17.2-15.5H31.4v30.9h27.5C69.5,58.5,76.1,52.6,76.1,43.1z M79,102.9
			c0-9.3-6.6-16.8-18.8-16.8H31.4v33.6h28.9C71.9,119.7,79,113.5,79,102.9z"/>
		<path d="M122.6,104.6v-64h28.2v63.1c0,12.7,7.7,21.9,22.7,21.9c14.8,0,22.6-9.2,22.6-21.9V40.6h28.1v63.9
			c0,26.8-16.1,45.6-50.6,45.6C139.1,150.1,122.6,131.1,122.6,104.6z"/>
		<path d="M236.5,147.3v-21l48.1-61.2h-48.1V40.6h86.3v20.1l-49,62.1h49.9v24.5H236.5z"/>
		<path d="M335.9,147.3v-21L384,65.1h-48.1V40.6h86.3v20.1l-49,62.1h49.9v24.5H335.9z"/>
	</g>
</svg>
