<svg xmlns="http://www.w3.org/2000/svg" viewBox="0 0 396.6 218.7">
<g fill="#2B8EE5">
	<path fill-rule="evenodd" clip-rule="evenodd" d="M295,122.2c6,19.6,17.6,34.7,46.5,35.3
		c31.2,0.6,44-16.2,53.1-30.5c1.5-2.3,3.6-8.1,0.6-9.5c-4.9-2.5-12-0.1-17,6.2c-6.5,8.1-17.3,17.9-35.7,18.1
		c-23,0.3-23.6-18.5-23.6-18.5c7.3,0.9,20.5,2,35.9-5.1c15.4-7.1,24.4-20.4,22.6-36.3c-1.7-14.9-14.9-24.8-36.4-22.6
		c-31.5,3.2-41.4,25.9-45.4,44.9c-1.1,5.2-34.8-0.1-34-0.9c9.4-9.6,44.8-50.4,43.1-78.3c-0.4-6-3.2-24.9-22.2-24.9
		c-38.4,0-52.6,100.6-52.6,100.6c-1.5,2.6-20,30.8-34,30.8c-15.4,0-10.5-30.9-5.5-48.2c3.1-10.7,8.5-23.3,7.7-24
		c-0.5-0.4-5.3-0.7-10.1-0.6c-4.1,0.1-8.7,0.6-9.5,1.1c-0.3,0.2-8.5,25.8-11.5,31.9c-3.3,6.8-15.1,39.4-50,44.9
		c-24.4,3.8-37-9.5-41.9-14.4c4.5-9.2,10.1-21.9,13.2-30.5c24.6,0.3,42-5.6,57.5-18.8c14-11.9,17.9-26.7,18.6-40.2
		c1.1-21.9-14-31.9-28-32.5c-16.1-0.7-28.7,6.3-38.1,17.7C87.3,30.9,82.1,44,72.4,70.7c-6.8-0.8-13.7-3.3-17.9-10.3
		c-7.3-12.2,5.1-28.5,5.1-28.5l-15.3-9.3c0,0-19,23.6-9.3,42.9c5.7,11.3,15.4,18.2,30.4,22.4c-2.3,6.6-6,15.1-9.5,21.9
		c-4-2.1-16.5-9.4-26.2-9.4C9.4,100.4,0,117.2,0,129.9c0,11.8,8.3,27.4,31.3,27.4c12.5,0,23.5-9,30.8-16.2
		c13.9,9.4,27.3,16.5,50,16.5c31.4,0,50.2-20.3,53.4-26.1c0.4,6.2,4.9,26.1,24.4,26.1c17.4,0,24-9.5,24-9.5s-4.1,16-3.7,29
		c0.6,17.8,10.6,42.5,36.6,41.6c9.5-0.3,24.5-5,31-22.5c3.4-9.1,4.5-23,1.6-37.6c-5.3-26.4-18.7-35.9-16.4-36.8
		C268.6,119.8,287.2,121.5,295,122.2 M355.6,92.6c-6.6,13.9-25.8,15.8-37.2,13.6c1.5-8.4,6.1-29,24.9-30.2
		C356.1,75.1,358,87.5,355.6,92.6 M246.4,95.7c0,0,6.4-33.7,16.1-54.2c5.2-10.9,12.1-22.6,18.8-22.6c5.4,0,7.7,6,6.4,13.3
		C284.6,49.3,253.8,93,246.4,95.7 M236.6,198.2c-4.8-4.2-8.8-12.2-8.3-24.5c0.7-16.3,7.1-34.5,13.9-47.8
		c8.9,6.8,15.5,16.2,18.5,24.4c4.5,12.5,6.5,23.6,2.8,37.5C259.8,201.4,245.6,206.2,236.6,198.2 M33.9,138.4
		c-9,0.8-14.5-5-14.5-11.2c0-6.2,3.7-11.9,13.1-10.1c8.3,1.6,12.8,7.6,15.1,11.1C44.9,133.2,40.2,137.8,33.9,138.4 M134.5,21.5
		c5.8-0.2,9.9,5.6,9.9,12.7c0,7.1-1.5,15-12.7,24.9c-7,6.1-22.7,11.2-35.8,12.4c7.1-17.1,12.9-31.4,20.1-40
		C121.8,24.6,128.7,21.7,134.5,21.5"/>
	<path fill-rule="evenodd" clip-rule="evenodd" d="M205.8,39.8c0,8.2-6.6,14.8-14.8,14.8c-8.2,0-14.8-6.6-14.8-14.8
		c0-8.2,6.6-14.8,14.8-14.8C199.1,25,205.8,31.6,205.8,39.8"/>
</g>
</svg>
