<svg xmlns="http://www.w3.org/2000/svg" viewBox="0 0 414.1 150.1"><g fill="#E32"><path d="M0 147.3V0h65.7c28 0 42.4 17.9 42.4 37.5 0 18.3-11.5 30.9-25.4 33.8 15.9 2.4 28.3 17.7 28.3 36 0 22.3-14.6 40-42.8 40H0zM76.1 43.1c0-9.1-6.6-15.5-17.2-15.5H31.4v30.9h27.5c10.6 0 17.2-5.9 17.2-15.4zm2.9 59.8c0-9.3-6.6-16.8-18.8-16.8H31.4v33.6h28.9c11.6 0 18.7-6.2 18.7-16.8zM119.6 104.6v-64h28.2v63.1c0 12.7 7.7 21.9 22.7 21.9 14.8 0 22.6-9.2 22.6-21.9V40.6h28.1v63.9c0 26.8-16.1 45.6-50.6 45.6s-51-19-51-45.5zM230.5 147.3v-21l48.1-61.2h-48.1V40.6h86.3v20.1l-49 62.1h49.9v24.5h-87.2zM326.9 147.3v-21L375 65.1h-48.1V40.6h86.3v20.1l-49 62.1h49.9v24.5h-87.2z"/></g></svg>