<svg xmlns="http://www.w3.org/2000/svg" viewBox="0 0 1282.7 218.7">
<g fill="#EE3322">
	<path d="M0,159.7V12.4h65.7c28,0,42.4,17.9,42.4,37.5c0,18.3-11.5,30.9-25.4,33.8c15.9,2.4,28.3,17.7,28.3,36
		c0,22.3-14.6,40-42.8,40H0z M76.1,55.4c0-9.1-6.6-15.5-17.2-15.5H31.4v30.9h27.5C69.5,70.9,76.1,64.9,76.1,55.4z M79,115.3
		c0-9.3-6.6-16.8-18.8-16.8H31.4v33.6h28.9C71.9,132.1,79,125.9,79,115.3z"/>
	<path d="M119.6,117V53h28.2V116c0,12.7,7.7,21.9,22.7,21.9c14.8,0,22.6-9.2,22.6-21.9V53h28.1v63.9
		c0,26.8-16.1,45.6-50.6,45.6C136.1,162.5,119.6,143.5,119.6,117z"/>
	<path d="M230.5,159.7v-21l48.1-61.2h-48.1V53h86.3v20.1l-49,62.1h49.9v24.5H230.5z"/>
	<path d="M326.9,159.7v-21L375,77.5h-48.1V53h86.3v20.1l-49,62.1h49.9v24.5H326.9z"/>
	<path d="M424.6,159.7V12.4h102.2V40H456v30.9h53.3v27.6H456v61.2H424.6z"/>
	<path d="M517.2,106.2c0-30.9,23-55.9,55.2-55.9c32,0,53.4,23.9,53.4,58.5v6.6h-79.3c2,13,12.6,23.9,30.7,23.9
		c9.1,0,21.4-3.8,28.3-10.4l12.6,18.6c-10.6,9.7-27.4,14.8-43.9,14.8C541.7,162.3,517.2,140.4,517.2,106.2z M572.4,73.3
		c-17.4,0-25,12.1-26.1,22.7h52.6C598,85.9,590.9,73.3,572.4,73.3z"/>
	<path d="M633.4,106.2c0-30.9,23-55.9,55.2-55.9c32,0,53.4,23.9,53.4,58.5v6.6h-79.3c2,13,12.6,23.9,30.7,23.9
		c9.1,0,21.4-3.8,28.3-10.4l12.6,18.6c-10.6,9.7-27.4,14.8-43.9,14.8C657.9,162.3,633.4,140.4,633.4,106.2z M688.6,73.3
		c-17.4,0-25,12.1-26.1,22.7h52.6C714.2,85.9,707.1,73.3,688.6,73.3z"/>
	<path d="M752.3,159.9V52.7h43c33.7,0,58,20.2,58,53.5c0,33.2-24.2,53.6-57.8,53.6H752.3z M826,106.2
		c0-16.6-10-30.4-29.6-30.4H779v60.9h17.4C815.1,136.7,826,122.1,826,106.2z"/>
</g>
<g fill="#2B8EE5">
	<path fill-rule="evenodd" clip-rule="evenodd" d="M1181,122.2c6,19.6,17.6,34.7,46.5,35.3
		c31.2,0.6,44-16.2,53.1-30.5c1.5-2.3,3.6-8.1,0.6-9.5c-4.9-2.5-12-0.1-17,6.2c-6.5,8.1-17.3,17.9-35.7,18.1
		c-23,0.3-23.6-18.5-23.6-18.5c7.3,0.9,20.5,2,35.9-5.1c15.4-7.1,24.4-20.4,22.6-36.3c-1.7-14.9-14.9-24.8-36.4-22.6
		c-31.5,3.2-41.4,25.9-45.4,44.9c-1.1,5.2-34.8-0.1-34-0.9c9.4-9.6,44.8-50.4,43.1-78.3c-0.4-6-3.2-24.9-22.2-24.9
		c-38.4,0-52.6,100.6-52.6,100.6c-1.5,2.6-20,30.8-34,30.8c-15.4,0-10.5-30.9-5.5-48.2c3.1-10.7,8.5-23.3,7.7-24
		c-0.5-0.4-5.3-0.7-10.1-0.6c-4.1,0.1-8.7,0.6-9.5,1.1c-0.3,0.2-8.5,25.8-11.5,31.9c-3.3,6.8-15.1,39.4-50,44.9
		c-24.4,3.8-37-9.5-41.9-14.4c4.5-9.2,10.1-21.9,13.2-30.5c24.6,0.3,42-5.6,57.5-18.8c14-11.9,17.9-26.7,18.6-40.2
		c1.1-21.9-14-31.9-28-32.5c-16.1-0.7-28.7,6.3-38.1,17.7c-10.8,13.1-16,26.2-25.7,52.9c-6.8-0.8-13.7-3.3-17.9-10.3
		c-7.3-12.2,5.1-28.5,5.1-28.5l-15.3-9.3c0,0-19,23.6-9.3,42.9c5.7,11.3,15.4,18.2,30.4,22.4c-2.3,6.6-6,15.1-9.5,21.9
		c-4-2.1-16.5-9.4-26.2-9.4c-20.4,0-29.8,16.8-29.8,29.5c0,11.8,8.3,27.4,31.3,27.4c12.5,0,23.5-9,30.8-16.2
		c13.9,9.4,27.3,16.5,50,16.5c31.4,0,50.2-20.3,53.4-26.1c0.4,6.2,4.9,26.1,24.4,26.1c17.4,0,24-9.5,24-9.5s-4.1,16-3.7,29
		c0.6,17.8,10.6,42.5,36.6,41.6c9.5-0.3,24.5-5,31-22.5c3.4-9.1,4.5-23,1.6-37.6c-5.3-26.4-18.7-35.9-16.4-36.8
		C1154.6,119.8,1173.2,121.5,1181,122.2 M1241.6,92.6c-6.6,13.9-25.8,15.8-37.2,13.6c1.5-8.4,6.1-29,24.9-30.2
		C1242.2,75.1,1244.1,87.5,1241.6,92.6 M1132.4,95.7c0,0,6.4-33.7,16.1-54.2c5.2-10.9,12.1-22.6,18.8-22.6c5.4,0,7.7,6,6.4,13.3
		C1170.7,49.3,1139.8,93,1132.4,95.7 M1122.6,198.2c-4.8-4.2-8.8-12.2-8.3-24.5c0.7-16.3,7.1-34.5,13.9-47.8
		c8.9,6.8,15.5,16.2,18.5,24.4c4.5,12.5,6.5,23.6,2.8,37.5C1145.9,201.4,1131.6,206.2,1122.6,198.2 M919.9,138.4
		c-9,0.8-14.5-5-14.5-11.2c0-6.2,3.7-11.9,13.1-10.1c8.3,1.6,12.8,7.6,15.1,11.1C931,133.2,926.2,137.8,919.9,138.4 M1020.5,21.5
		c5.8-0.2,9.9,5.6,9.9,12.7c0,7.1-1.5,15-12.7,24.9c-7,6.1-22.7,11.2-35.8,12.4c7.1-17.1,12.9-31.4,20.1-40
		C1007.9,24.6,1014.8,21.7,1020.5,21.5"/>
	<path fill-rule="evenodd" clip-rule="evenodd" d="M1091.8,39.8c0,8.2-6.6,14.8-14.8,14.8
		c-8.2,0-14.8-6.6-14.8-14.8c0-8.2,6.6-14.8,14.8-14.8C1085.2,25,1091.8,31.6,1091.8,39.8"/>
</g>
</svg>
