<svg xmlns="http://www.w3.org/2000/svg" viewBox="0 0 428.9 107.1">
<g fill="#FFFFFF">
	<path d="M0,89.8l9.4-1V18.3L0,17.5V1.7h36.1l37.6,56.5v-39l-10.4-1.6V1.7h35.2v15.8l-7.9,1.6V105H75.4L26.1,30.9
		v56.8l15.5,2.1V105H0V89.8z"/>
	<path d="M179.6,21.1c-1.7-4.5-3.5-4.8-8.6-4.8h-24.6v29.9h8.1c3.6,0,5.4-1.2,6.1-4l2.6-9.7h9.2v39.3h-9.4
		l-2.8-10.1c-1-3.3-2.6-4-6.3-4h-7.6v31.9h25.9c7.8,0,8.7-0.7,10.7-5.6l6.6-17.2h11.1V105h-89.1V89.8l9.7-1.3V18.3l-9.7-0.8V1.7
		h84.2v34.7h-10.2L179.6,21.1z"/>
	<path d="M278.2,54.3L262,106h-20.5l-26.1-88l-6.9-0.5V1.7h41.1v15.8l-7.9,0.7l16,55l12.4-41.9L265.8,18l-6.4-0.5
		V1.7h38.3v15.8l-6.8,0.7l17.2,55l13.2-52.7l-9.2-3V1.7h33v15.8l-7.3,2.5l-23.4,86h-19.8L278.2,54.3z"/>
	<path d="M367.4,96.4l-2.3,8.6h-12.2V71h13.7c4,16.8,13.5,21.5,22.8,21.5c10.1,0,15.8-4.1,15.8-12.7
		c0-7.8-8.6-11.2-23.6-16.3c-16.5-5.4-28.9-13.9-28.9-32.4c0-20.3,16-31,32.5-31c9.1,0,18.3,3.5,23.1,9.1l2.1-7.4h12.1v29.2h-13.2
		c-2.5-10.6-10.7-16.3-21.1-16.3c-7.6,0-13,3.5-13,10.1c0,8.9,9.1,11.6,22.1,15.8c17.2,5.9,31.7,12.9,31.7,32.7
		c0,22.3-18.3,34-35.5,34C383.4,107.1,373.8,103.7,367.4,96.4z"/>
</g>
</svg>
